<?xml version="1.0" encoding="UTF-8" standalone="no"?>
<svg width="106px" height="302px" viewBox="0 0 106 302" version="1.1" xmlns="http://www.w3.org/2000/svg" xmlns:xlink="http://www.w3.org/1999/xlink">
    <!-- Generator: Sketch 42 (36781) - http://www.bohemiancoding.com/sketch -->
    <title>arrow carrot down</title>
    <desc>Created with Sketch.</desc>
    <defs>
        <linearGradient x1="97.140938%" y1="-4.35858763%" x2="96.7172511%" y2="100%" id="linearGradient-1">
            <stop stop-color="#FFFFFF" stop-opacity="0" offset="0%"></stop>
            <stop stop-color="#FFFFFF" stop-opacity="0.0786911232" offset="18.7639509%"></stop>
            <stop stop-color="#FFFFFF" offset="100%"></stop>
        </linearGradient>
    </defs>
    <g id="Home" stroke="none" stroke-width="1" fill="none" fill-rule="evenodd">
        <g id="Home-2" transform="translate(-1778.000000, -431.000000)" fill-rule="nonzero" fill="url(#linearGradient-1)">
            <g id="arrow-carrot-down" transform="translate(1777.332178, 431.332178)">
                <path d="M95.8572329,295.100527 L77.4096022,293.340099 C75.9568651,293.201466 74.6819756,294.271226 74.5662367,295.725966 C74.4504978,297.180706 75.5372374,298.475831 76.9899745,298.614464 L101.15011,300.920027 C101.880204,300.989699 102.566989,300.754564 103.078343,300.318525 C103.597146,299.883197 103.947375,299.255137 104.005541,298.524037 L105.930368,274.330591 C106.046106,272.875851 104.959367,271.580725 103.50663,271.442092 C102.053893,271.30346 100.779003,272.373219 100.663264,273.827959 L99.1513523,292.831416 C39.8436692,206.301878 7.41848321,104.736301 4.82190721,0.429552772 L0.823146018,0.529096546 C3.43891294,105.606761 36.105952,207.927015 95.8572329,295.100527 Z" id="Combined-Shape"></path>
            </g>
        </g>
    </g>
</svg>