<?xml version="1.0" encoding="UTF-8" standalone="no"?>
<svg width="43px" height="63px" viewBox="0 0 43 63" version="1.1" xmlns="http://www.w3.org/2000/svg" xmlns:xlink="http://www.w3.org/1999/xlink">
    <!-- Generator: Sketch 43.2 (39069) - http://www.bohemiancoding.com/sketch -->
    <title>icon pin</title>
    <desc>Created with Sketch.</desc>
    <defs></defs>
    <g id="Contact" stroke="none" stroke-width="1" fill="none" fill-rule="evenodd">
        <g transform="translate(-1331.000000, -471.000000)" id="icon-pin" fill-rule="nonzero" fill="#FFFFFF">
            <g transform="translate(1331.000000, 471.000000)">
                <path d="M20.0943333,61.9329375 C20.4163333,62.299125 20.7268333,62.535375 21.0258333,62.70075 C21.0296667,62.7046875 21.0373333,62.7046875 21.0411667,62.708625 C21.2481667,62.818875 21.4513333,62.9015625 21.643,62.9015625 C21.8346667,62.9015625 22.0378333,62.818875 22.2448333,62.708625 C22.2486667,62.7046875 22.2563333,62.7046875 22.2601667,62.70075 C22.5591667,62.535375 22.8696667,62.299125 23.1916667,61.9329375 C23.1916667,61.9329375 41.009,42.028875 42.7991667,24.782625 C42.9065,23.89275 42.9793333,22.9910625 42.9793333,22.073625 C42.9793333,9.883125 33.3576667,0 21.4896667,0 C9.62166667,0 0,9.883125 0,22.073625 C0,23.0068125 0.0728333333,23.916375 0.184,24.8180625 C2.02016667,42.0564375 20.0943333,61.9329375 20.0943333,61.9329375 Z M21.4896667,7.875 C29.1103333,7.875 35.3126667,14.245875 35.3126667,22.073625 C35.3126667,29.901375 29.1103333,36.27225 21.4896667,36.27225 C13.869,36.27225 7.66666667,29.901375 7.66666667,22.073625 C7.66666667,14.245875 13.869,7.875 21.4896667,7.875 Z" id="Shape"></path>
            </g>
        </g>
    </g>
</svg>