<?xml version="1.0" encoding="UTF-8" standalone="no"?>
<svg width="215px" height="910px" viewBox="0 0 215 910" version="1.1" xmlns="http://www.w3.org/2000/svg" xmlns:xlink="http://www.w3.org/1999/xlink">
    <!-- Generator: Sketch 43.2 (39069) - http://www.bohemiancoding.com/sketch -->
    <title>Group</title>
    <desc>Created with Sketch.</desc>
    <defs>
        <linearGradient x1="100%" y1="0%" x2="0%" y2="100%" id="linearGradient-1">
            <stop stop-color="#FFFFFF" offset="0%"></stop>
            <stop stop-color="#FFFFFF" stop-opacity="0" offset="86.4078444%"></stop>
            <stop stop-color="#FFFFFF" stop-opacity="0" offset="100%"></stop>
        </linearGradient>
    </defs>
    <g id="Home" stroke="none" stroke-width="1" fill="none" fill-rule="evenodd">
        <g id="Home-1" transform="translate(-1705.000000, 0.000000)">
            <g id="Group-4" transform="translate(1561.000000, -314.000000)">
                <g id="Group">
                    <g id="Group-3" transform="translate(769.332178, 769.332178) rotate(-225.000000) translate(-769.332178, -769.332178) translate(225.332178, 225.332178)">
                        <ellipse id="Oval-4" stroke="#E75151" stroke-width="162" fill-opacity="0" fill="#D8D8D8" cx="544.364946" cy="543.875941" rx="543.635054" ry="543.769605"></ellipse>
                        <path d="M931.590862,925.539853 C1004.51514,851.523017 1056.38735,756.698172 1077.49792,650.777295" id="Oval-4-Copy-4" stroke="url(#linearGradient-1)" stroke-width="4"></path>
                    </g>
                    <g id="arrow-carrot-down" transform="translate(289.332178, 1043.332178)" fill-rule="nonzero" fill="#FFFFFF">
                        <path d="M37.9844766,11.1198437 L22.8067266,26.5385104 L7.62897656,11.1198437 C6.60522656,10.0798437 4.94097656,10.0798437 3.91722656,11.1198437 C2.89347656,12.1598437 2.89347656,13.8505104 3.91722656,14.8905104 L20.9429766,32.1865104 C21.4574766,32.7091771 22.1347266,32.9705104 22.8067266,32.9651771 C23.4839766,32.9651771 24.1559766,32.7091771 24.6704766,32.1865104 L41.6962266,14.8905104 C42.7199766,13.8505104 42.7199766,12.1598437 41.6962266,11.1198437 C40.6724766,10.0798437 39.0082266,10.0798437 37.9844766,11.1198437 Z" id="Shape" transform="translate(22.806727, 21.652550) rotate(-40.000000) translate(-22.806727, -21.652550) "></path>
                    </g>
                </g>
            </g>
        </g>
    </g>
</svg>